<?xml version="1.0" encoding="UTF-8" standalone="no"?>
<!DOCTYPE svg PUBLIC "-//W3C//DTD SVG 1.1//EN"
 "http://www.w3.org/Graphics/SVG/1.1/DTD/svg11.dtd">
<!-- Generated by graphviz version 9.0.0 (20230911.1827)
 -->
<!-- Pages: 1 -->
<svg width="618pt" height="203pt"
 viewBox="0.00 0.00 618.00 203.00" xmlns="http://www.w3.org/2000/svg" xmlns:xlink="http://www.w3.org/1999/xlink">
<g id="graph0" class="graph" transform="scale(1 1) rotate(0) translate(4 199)">
<polygon fill="white" stroke="none" points="-4,4 -4,-199 614,-199 614,4 -4,4"/>
<!-- 1 -->
<g id="node1" class="node">
<title>1</title>
<path fill="#50b7d8" stroke="none" d="M20,-4C20,-4 267,-4 267,-4 273,-4 279,-10 279,-16 279,-16 279,-179 279,-179 279,-185 273,-191 267,-191 267,-191 20,-191 20,-191 14,-191 8,-185 8,-179 8,-179 8,-16 8,-16 8,-10 14,-4 20,-4"/>
<text text-anchor="start" x="24" y="-162.7" font-family="Times,serif" font-weight="bold" font-size="14.00">CUSTOMERS</text>
<text text-anchor="start" x="260.62" y="-162.07" font-family="Times,serif" font-size="14.00"> T </text>
<polygon fill="white" stroke="none" points="9,-110 9,-145 278,-145 278,-110 9,-110"/>
<text text-anchor="start" x="19" y="-121.7" font-family="Times,serif" font-size="14.00"> CUSTOMER_ID </text>
<polygon fill="white" stroke="none" points="9,-75 9,-110 278,-110 278,-75 9,-75"/>
<text text-anchor="start" x="19" y="-86.7" font-family="Times,serif" font-size="14.00"> EMAIL </text>
<polygon fill="white" stroke="none" points="9,-40 9,-75 278,-75 278,-40 9,-40"/>
<text text-anchor="start" x="19" y="-51.7" font-family="Times,serif" font-size="14.00"> FIRST_NAME </text>
<polygon fill="white" stroke="none" points="9,-5 9,-40 278,-40 278,-5 9,-5"/>
<text text-anchor="start" x="19" y="-16.7" font-family="Times,serif" font-size="14.00"> LAST_NAME </text>
<path fill="none" stroke="#50b7d8" d="M20,-4C20,-4 267,-4 267,-4 273,-4 279,-10 279,-16 279,-16 279,-179 279,-179 279,-185 273,-191 267,-191 267,-191 20,-191 20,-191 14,-191 8,-185 8,-179 8,-179 8,-16 8,-16 8,-10 14,-4 20,-4"/>
</g>
<!-- 6 -->
<g id="node2" class="node">
<title>6</title>
<path fill="#50b7d8" stroke="none" d="M343,-38.5C343,-38.5 590,-38.5 590,-38.5 596,-38.5 602,-44.5 602,-50.5 602,-50.5 602,-178.5 602,-178.5 602,-184.5 596,-190.5 590,-190.5 590,-190.5 343,-190.5 343,-190.5 337,-190.5 331,-184.5 331,-178.5 331,-178.5 331,-50.5 331,-50.5 331,-44.5 337,-38.5 343,-38.5"/>
<text text-anchor="start" x="347" y="-162.2" font-family="Times,serif" font-weight="bold" font-size="14.00">ACTIVE_CUSTOMERS</text>
<text text-anchor="start" x="583.62" y="-161.57" font-family="Times,serif" font-size="14.00"> T </text>
<polygon fill="white" stroke="none" points="332,-109.5 332,-144.5 601,-144.5 601,-109.5 332,-109.5"/>
<text text-anchor="start" x="342" y="-121.2" font-family="Times,serif" font-size="14.00"> CUSTOMER_ID </text>
<polygon fill="white" stroke="none" points="332,-74.5 332,-109.5 601,-109.5 601,-74.5 332,-74.5"/>
<text text-anchor="start" x="342" y="-86.2" font-family="Times,serif" font-size="14.00"> EMAIL </text>
<polygon fill="white" stroke="none" points="332,-39.5 332,-74.5 601,-74.5 601,-39.5 332,-39.5"/>
<text text-anchor="start" x="342" y="-51.2" font-family="Times,serif" font-size="14.00"> FULLNAME </text>
<path fill="none" stroke="#50b7d8" d="M343,-38.5C343,-38.5 590,-38.5 590,-38.5 596,-38.5 602,-44.5 602,-50.5 602,-50.5 602,-178.5 602,-178.5 602,-184.5 596,-190.5 590,-190.5 590,-190.5 343,-190.5 343,-190.5 337,-190.5 331,-184.5 331,-178.5 331,-178.5 331,-50.5 331,-50.5 331,-44.5 337,-38.5 343,-38.5"/>
</g>
<!-- 1&#45;&gt;6 -->
<g id="edge1" class="edge">
<title>1:2&#45;&gt;6:9</title>
<path fill="none" stroke="#5f5f5f" d="M279.5,-57.5C297.92,-57.5 305.11,-56.84 319.32,-56.59"/>
<polygon fill="#5f5f5f" stroke="#5f5f5f" points="319.02,-60.09 328.99,-56.51 318.96,-53.1 319.02,-60.09"/>
</g>
<!-- 1&#45;&gt;6 -->
<g id="edge2" class="edge">
<title>1:3&#45;&gt;6:7</title>
<path fill="none" stroke="#5f5f5f" d="M279.5,-127.5C297.92,-127.5 305.11,-127.5 319.32,-127.5"/>
<polygon fill="#5f5f5f" stroke="#5f5f5f" points="318.99,-131 328.99,-127.5 318.99,-124 318.99,-131"/>
</g>
<!-- 1&#45;&gt;6 -->
<g id="edge3" class="edge">
<title>1:4&#45;&gt;6:9</title>
<path fill="none" stroke="#5f5f5f" d="M279.5,-22.5C302.27,-22.5 303.57,-46.26 319.3,-54.05"/>
<polygon fill="#5f5f5f" stroke="#5f5f5f" points="318.5,-57.46 329.02,-56.18 320,-50.62 318.5,-57.46"/>
</g>
<!-- 1&#45;&gt;6 -->
<g id="edge4" class="edge">
<title>1:5&#45;&gt;6:8</title>
<path fill="none" stroke="#5f5f5f" d="M279.5,-92.5C297.92,-92.5 305.11,-91.84 319.32,-91.59"/>
<polygon fill="#5f5f5f" stroke="#5f5f5f" points="319.02,-95.09 328.99,-91.51 318.96,-88.1 319.02,-95.09"/>
</g>
</g>
</svg>
